<svg display="none" width="0" height="0" version="1.1" xmlns="http://www.w3.org/2000/svg"
     xmlns:xlink="http://www.w3.org/1999/xlink">
  <defs>
    <symbol id="icon-ЛЮБИМИ" viewBox="0 0 27 27">
      <title>ЛЮБИМИ</title>
      <path
        d="m24.6 4.1c-3-3-7.9-3-11.2-.2-3-3-7.9-2.9-11.1.2-3.1 3.1-3.1 8.1 0 11.3.9.9 9.3 9.2 9.3 9.2 1 1 2.6 1 3.6 0 0 0 9.2-9.1 9.3-9.2 3.3-3.2 3.3-8.3.1-11.3m-16.9 3.2c-1.2 0-2.2 1-2.2 2.2 0 .6-.5 1-1 1-.6 0-1-.5-1-1 0-2.3 1.8-4 4-4.1h.1c.6 0 1 .5 1 1 .1.5-.3.9-.9.9"></path>
    </symbol>
    <symbol id="icon-ЕФИРНИ" viewBox="2.2 0 22.5 27">
      <title>ЕФИРНИ</title>
      <path
        d="m10.6 12.2c0 1.1.6 2.1 1.6 2.5v7.6c0 .6-.4 1-1 1h-2.9c-.7.1-1.3.7-1.3 1.5s.7 1.2 1.3 1.2h10.4c.7 0 1.2-.6 1.2-1.2 0-.7-.6-1.4-1.2-1.4h-2.8c-.6 0-1-.4-1-1v-7.6c.9-.5 1.6-1.5 1.6-2.5 0-1.6-1.2-2.8-2.8-2.8-1.8-.2-3.1 1.1-3.1 2.7m-4.2.2c0 1.2.3 2.5.9 3.5l.2.1c.2.4.6.7 1.1.7.7 0 1.4-.6 1.4-1.4 0-.2-.1-.5-.2-.7l-.1-.2c-.3-.6-.5-1.4-.5-2.2 0-2.5 2-4.6 4.5-4.6 2.5 0 4.4 2.1 4.4 4.6 0 .8-.2 1.6-.5 2.2l-.1.2c-.1.2-.2.4-.2.7 0 .7.6 1.4 1.4 1.4.5 0 .9-.3 1.1-.7l.1-.1c.6-1 .9-2.3.9-3.5 0-4-3.1-7.2-7-7.2-4.2 0-7.4 3.2-7.4 7.2m-4.2 0c0 2.5.8 4.9 2.3 6.8l.1.1c.2.3.6.5 1 .5.7 0 1.2-.6 1.2-1.4 0-.3-.1-.6-.3-.8l-.1-.1c-1-1.5-1.7-3.2-1.7-5.2 0-4.8 3.9-8.8 8.6-8.8 4.8 0 8.5 4 8.5 8.8 0 2-.6 3.8-1.7 5.2l-.1.2c-.2.2-.3.5-.3.8 0 .7.6 1.4 1.4 1.4.4 0 .8-.2 1-.5l.1-.1c1.5-1.9 2.3-4.3 2.3-6.8.1-6.4-4.9-11.5-11-11.5-6.1 0-11.3 5.1-11.3 11.4"></path>
    </symbol>
    <symbol id="icon-Спортни" viewBox="0 0 19.6 27">
      <title>Спортни</title>
      <path
        d="m19.5 9.3l-1.8 4c-.3.7-1.1 1-1.9.7-.7-.3-1-1.1-.7-1.9l1.3-2.8-1.7-.8-2.4 5.3-5.9-2.7 1.4-3.1h-6.4c-.8.1-1.4-.5-1.4-1.3 0-.8.6-1.4 1.4-1.4h12.3c.1 0 .2 0 .3 0 .1 0 .2 0 .2.1.1 0 .1 0 .2.1l3.9 1.8c.1 0 .2.1.3.2.9.3 1.2 1.1.9 1.8m-13.4 9.2l2.2-4.9-2.6-1.2-2.2 4.9c-.3.7 0 1.5.7 1.9.7.3 1.6 0 1.9-.7m3-4.5l-5 11c-.3.7 0 1.5.7 1.9.7.3 1.5 0 1.9-.7l5-11.1zm2.2-9.5c1.2 0 2.2-1 2.2-2.2 0-1.2-1-2.2-2.2-2.2-1.2 0-2.2 1-2.2 2.2 0 1.2 1 2.2 2.2 2.2m0 18.1c-1.1 0-2.1.9-2.1 2.1s.9 2.1 2.1 2.1c1.1 0 2.1-.9 2.1-2.1s-1-2.1-2.1-2.1"></path>
    </symbol>
    <symbol id="icon-Научни" viewBox="1 0 25 27">
      <title>Научни</title>
      <path
        d="m2 2c-1.7 1.7-1.1 5.3 1.2 9.4-.1.6-.2 1.4-.2 2.1 0 5.8 4.7 10.5 10.5 10.5.7 0 1.5-.1 2.2-.2 4.1 2.3 7.7 2.9 9.4 1.2s1.1-5.3-1.2-9.4c.1-.7.2-1.5.2-2.2-.1-5.7-4.8-10.4-10.6-10.4-.7 0-1.5.1-2.2.2-4-2.3-7.6-2.9-9.3-1.2m21 21.3c-6.4 1.9-22.4-16.1-19.2-19.5.8-.7 2.4-.4 4.4.6-.8.6-1.7 1.2-2.4 1.9 2.2 5.5 9.4 12.7 15 14.8.7-.7 1.4-1.5 1.9-2.4.8 1.9 1 3.4.3 4.6"></path>
    </symbol>
    <symbol id="icon-Филмови" viewBox="0 0 26.4 27">
      <title>Филмови</title>
      <path
        d="m0 15.5c0 6.3 5.2 11.5 11.5 11.5 6.4 0 11.5-5.2 11.5-11.5 0-2.2-.9-4.9-1.7-6.1-.7-1-.9-1.7-.9-2.6 0-2 2.1-3.9 4.3-3.9h.3c.8 0 1.4-.6 1.4-1.4 0-.9-.6-1.5-1.4-1.5h-.3c-3.5 0-6.4 1.8-7.1 5.6-1.4-1.1-3.7-1.7-6.1-1.7-6.3 0-11.5 5.2-11.5 11.6m10.1 0c0-.8.6-1.4 1.4-1.4.8 0 1.4.6 1.4 1.4 0 .8-.6 1.4-1.4 1.4-.7 0-1.4-.7-1.4-1.4m-7.3 0c0-1.4 1.1-2.5 2.5-2.5 1.4 0 2.5 1.1 2.5 2.5 0 1.4-1.1 2.5-2.5 2.5-1.4 0-2.5-1.1-2.5-2.5m12.4 0c0-1.4 1.1-2.5 2.5-2.5s2.5 1.1 2.5 2.5c0 1.4-1.1 2.5-2.5 2.5-1.4 0-2.5-1.1-2.5-2.5m-6.2 6.2c0-1.4 1.1-2.5 2.5-2.5 1.4 0 2.5 1.1 2.5 2.5s-1.1 2.5-2.5 2.5c-1.4 0-2.5-1.1-2.5-2.5m0-12.4c0-1.4 1.1-2.5 2.5-2.5 1.4 0 2.5 1.1 2.5 2.5 0 1.4-1.1 2.5-2.5 2.5-1.4 0-2.5-1.1-2.5-2.5"></path>
    </symbol>
    <symbol id="icon-Музикални" viewBox="1 0 25 27">
      <title>Музикални</title>
      <path
        d="m8.4 16.5c-.6-.3-1.5-.5-2.2-.5-2.8 0-5 2.3-5 5 0 2.8 2.2 5 5 5s5-2.2 5-5v-11.1c0-.6.5-1.1 1.1-1.1h9.5c.6 0 1.1.5 1.1 1.1v6.7c-.6-.3-1.5-.5-2.2-.5-2.7 0-5 2.3-5 5 0 2.8 2.2 5 5 5 2.7 0 5-2.2 5-5v-18.9c0-.7-.5-1.2-1.2-1.2h-14.9c-.7 0-1.2.5-1.2 1.2z"></path>
    </symbol>
    <symbol id="icon-Детски" viewBox="1 0 25 27">
      <title>Детски</title>
      <path
        d="m23.9 10.4h1.6c.1 0 .3 0 .4-.1.2-.2.2-.5 0-.7s-1.9-2.3-1.9-2.3 1.8-2.1 1.9-2.2c.2-.2.2-.5 0-.7-.1-.1-.3-.2-.4-.2h-2.5c-1.2-1.9-3.3-3.2-5.6-3.2-3.6 0-6.5 2.9-6.5 6.5 0 2.2-1.8 3.8-3.8 3.8h-5.1c-.6 0-1 .5-1 1v.1c.5 4.6 3.6 8.3 7.8 9.7v2.4c0 .7.6 1.2 1.2 1.2.7 0 1.4-.6 1.4-1.2v-1.8c.3 0 .7 0 1 0s.7 0 1 0v1.9c0 .7.6 1.2 1.2 1.2.7 0 1.2-.6 1.2-1.2v-2.4c4.6-1.6 7.8-5.8 7.8-10.8zm-6.3-4.9c0-.7.6-1.4 1.2-1.4.7 0 1.4.6 1.4 1.4 0 .7-.6 1.2-1.4 1.2-.5 0-1.2-.6-1.2-1.2m-4 7.6c.7 1.6.4 3.5-.8 4.9-1.2 1.2-3.2 1.6-4.8.9l-.2-.1c-.3-.2-.5-.5-.5-.9 0-.3.1-.6.3-.7.1-.1 4.3-4.3 4.3-4.3.4-.4 1-.4 1.5 0 .1.1.1.1.2.2z"></path>
    </symbol>
    <symbol id="icon-ДРУГИ" viewBox="1 0 25 27">
      <title>ДРУГИ</title>
      <path
        d="m1 13.5c0 6.9 5.6 12.5 12.5 12.5s12.5-5.6 12.5-12.5-5.6-12.5-12.5-12.5-12.5 5.6-12.5 12.5m2.6 0c0-.8.1-1.6.3-2.3l2.3 2.3-.5 3.1 2.1 2.1v2.8c-2.5-1.7-4.2-4.7-4.2-8m7.6-9.7c.7-.2 1.5-.3 2.3-.3.8 0 1.7.1 2.5.3l-.4.7.5.6h1.6l.4-.4c.4.2.7.4 1 .6l-.9.3-1 1 1 .5v.5h-1v1c0 0 .7.5 1.6.5.8 0 .4-1.1 1-1.6.6-.4 1.4-.3 1.4-.3l.3.1c.6.8 1.1 1.8 1.5 2.8 0 0-.7-.5-2.1-.5-1.4 0-2.6.5-2.6.5s-1.5.4-1.6 1.6c-.2 2 .5 2.6.5 2.6l2.6 1.6v5.1c-1.7 1.4-3.9 2.2-6.2 2.2-1.1 0-2.2-.2-3.2-.5l2.7-6.2-.6-2.5c0 0-2.1-2.6-3.1-2.6-1 0-1.6 1.6-1.6 1.6l-1-2.1 3.1-2.1 1.6-4.2z"></path>
    </symbol>
    <symbol id="icon-18+" viewBox="1 0 25 27">
      <title>18+</title>
      <path
        d="m18.4 15.5c0 .7-.6 1.2-1.7 1.2-1 0-1.7-.5-1.7-1.2 0-.7.7-1.2 1.7-1.2 1 0 1.7.5 1.7 1.2m-1.7-2.9c.8 0 1.4-.5 1.4-1.1 0-.6-.5-1.1-1.4-1.1-.8 0-1.4.5-1.4 1.1.1.5.6 1.1 1.4 1.1m9.3.9c0 6.9-5.6 12.5-12.5 12.5s-12.5-5.6-12.5-12.5 5.6-12.5 12.5-12.5 12.5 5.6 12.5 12.5m-15-4c0-.6-.5-1-1-1-.3 0-.6.1-1 .2l-1.4.4c-.4.1-.7.5-.7.9 0 .5.4.9.9.9.1 0 .3 0 .4-.1l.7-.2v6.8c0 .6.5 1 1 1 .6 0 1-.5 1-1v-7.9zm9.5 6.1c0-1.1-.6-1.8-1.6-2.3.7-.4 1.2-1.1 1.2-2.2 0-1.6-1.4-2.7-3.4-2.7-2.1 0-3.4 1.1-3.4 2.7 0 1 .5 1.7 1.3 2.2-1 .5-1.6 1.1-1.6 2.4 0 1.7 1.6 2.8 3.8 2.8s3.7-1 3.7-2.9"></path>
    </symbol>
    <symbol id="icon-Радио" viewBox="1 0 25 27">
      <title>Радио</title>
      <path
        d="m5.8 19.4c0 .7.6 1.3 1.3 1.3.7 0 1.3-.6 1.3-1.3s-.6-1.3-1.3-1.3c-.8 0-1.3.6-1.3 1.3m12.8-12.3l-12.9-5.6c-.6-.2-1.2 0-1.4.6-.2.6.1 1.2.6 1.5l8.2 3.6h-10c-1.2 0-2.1.9-2.1 2.1v14.1c0 1.2.9 2.1 2.1 2.1h18.8c1.2 0 2.1-.9 2.1-2.1v-7.3h.9c.6 0 1.1-.5 1.1-1.1v-2.9c0-.6-.5-1.1-1.1-1.1h-.9v-1.6c0-1.2-.9-2.1-2.1-2.1h-3.3zm-13.8 2.6h15.4c.6 0 1.2.5 1.2 1.1v1.9c0 .6-.5 1.1-1.2 1.1h-10.3l-1.5-1.4-1.6 1.6h-2c-.6 0-1.1-.5-1.1-1.1v-1.9c0-.7.5-1.3 1.1-1.3m14 7.6c0-.7.6-1.3 1.3-1.3.7 0 1.3.6 1.3 1.3 0 .7-.6 1.3-1.3 1.3-.7 0-1.3-.6-1.3-1.3m-15.1 2.1c0-1.9 1.5-3.4 3.4-3.4s3.4 1.5 3.4 3.4-1.5 3.4-3.4 3.4-3.4-1.5-3.4-3.4"></path>
    </symbol>
    <symbol id="icon-ВИДЕОТЕКА" viewBox="1 0 25 27">
      <title>ВИДЕОТЕКА</title>
      <path
        d="m13.5 1c-6.9 0-12.5 5.6-12.5 12.5s5.6 12.5 12.5 12.5 12.5-5.6 12.5-12.5-5.6-12.5-12.5-12.5m4.9 14.2l-6 3.5c-.5.3-1.1.3-1.7 0s-.8-.8-.8-1.5v-7c0-.6.3-1.1.8-1.5s1.1-.3 1.7 0l6 3.5c.5.3.8.8.8 1.5.1.6-.3 1.2-.8 1.5"></path>
    </symbol>
    <symbol id="icon-МЕНЮ" viewBox="0 0 25 27">
      <title>МЕНЮ</title>
      <path
        d="m12.5 1c-6.9 0-12.5 5.6-12.5 12.5 0 6.9 5.6 12.5 12.5 12.5 6.9 0 12.5-5.6 12.5-12.5 0-6.9-5.6-12.5-12.5-12.5m5.7 16.8h-11.4c-.5 0-1-.4-1-1 0-.5.4-1 1-1h11.4c.5 0 1 .4 1 1 0 .5-.5 1-1 1m0-3.6h-11.4c-.5 0-1-.4-1-1 0-.5.4-1 1-1h11.4c.5 0 1 .4 1 1 0 .6-.5 1-1 1m0-3.5h-11.4c-.5 0-1-.4-1-1 0-.5.4-1 1-1h11.4c.5 0 1 .4 1 1 0 .6-.5 1-1 1"></path>
    </symbol>
  </defs>
</svg>
